<svg width="1686" height="679" viewBox="0 0 1686 679" fill="none" xmlns="http://www.w3.org/2000/svg">
<g id="Mapa La Federala - Interactivo">
<g id="Lotes Interactivos">
<g id="Fraccion 3">
<path id="Lote39-3" d="M320 157.5H259.5V191H262L290 183L318.5 174L320 172.5V157.5Z" fill="#3EBFD6" fill-opacity="0.3"/>
<rect id="Lote38-3" x="259" y="136" width="61" height="19" fill="#3EBFD6" fill-opacity="0.3"/>
<rect id="Lote37-3" x="259" y="114" width="61" height="19" fill="#3EBFD6" fill-opacity="0.3"/>
<rect id="Lote36-3" x="259" y="92" width="61" height="19" fill="#3EBFD6" fill-opacity="0.3"/>
<path id="Lote35-3" d="M259.5 87L260.5 49H319.5V65L313 68.5V87H259.5Z" fill="#3EBFD6" fill-opacity="0.3"/>
<path id="Lote34-3" d="M392 48.5H332V63.5L339 69.5V81.5L338 83V88.5H389.5L392 86.5V48.5Z" fill="#3EBFD6" fill-opacity="0.3"/>
<rect id="Lote33-3" x="331" y="92" width="61" height="19" fill="#3EBFD6" fill-opacity="0.3"/>
<rect id="Lote32-3" x="331" y="114" width="61" height="19" fill="#3EBFD6" fill-opacity="0.3"/>
<rect id="Lote31-3" x="331" y="136" width="61" height="19" fill="#3EBFD6" fill-opacity="0.3"/>
<rect id="Lote30-3" x="331" y="157" width="61" height="19" fill="#3EBFD6" fill-opacity="0.3"/>
<path id="Lote29-3" d="M417.5 136H398.5V176H402.5L404.5 173.5H417.5V136Z" fill="#3EBFD6" fill-opacity="0.3"/>
<path id="Lote28-3" d="M441 136H421V174H441V136Z" fill="#3EBFD6" fill-opacity="0.3"/>
<path id="Lote27-3" d="M463.5 136H444.5V174H460.5V175.5H463.5V136Z" fill="#3EBFD6" fill-opacity="0.3"/>
<rect id="Lote26-3" x="470" y="160" width="61" height="17" fill="#3EBFD6" fill-opacity="0.3"/>
<rect id="Lote25-3" x="470" y="140" width="61" height="17" fill="#3EBFD6" fill-opacity="0.3"/>
<rect id="Lote24-3" x="470" y="120" width="61" height="17" fill="#3EBFD6" fill-opacity="0.3"/>
<rect id="Lote23-3" x="470" y="101" width="61" height="17" fill="#3EBFD6" fill-opacity="0.3"/>
<path id="Lote22-3" d="M519.098 77H470V98H531V89.9231L523.561 83.4615L519.098 77Z" fill="#3EBFD6" fill-opacity="0.3"/>
<path id="Lote21-3" d="M530 43.5H469.5V74.5H519L523 66.5L530 59.5V43.5Z" fill="#3EBFD6" fill-opacity="0.3"/>
<path id="Lote20-3" d="M603 44H543V59.5L550 66.5L555 75H601L603 73V44Z" fill="#3EBFD6" fill-opacity="0.3"/>
<path id="Lote19-3" d="M603.5 78H554.5L550 85.5L543 90.5V97.5H601.5L603.5 96.5V78Z" fill="#3EBFD6" fill-opacity="0.3"/>
<rect id="Lote18-3" x="543" y="101" width="61" height="17" fill="#3EBFD6" fill-opacity="0.3"/>
<rect id="Lote17-3" x="543" y="120" width="61" height="17" fill="#3EBFD6" fill-opacity="0.3"/>
<rect id="Lote16-3" x="543" y="140" width="61" height="17" fill="#3EBFD6" fill-opacity="0.3"/>
<rect id="Lote15-3" x="543" y="160" width="61" height="17" fill="#3EBFD6" fill-opacity="0.3"/>
<rect id="Lote14-3" x="607" y="134" width="20" height="43" fill="#3EBFD6" fill-opacity="0.3"/>
<rect id="Lote13-3" x="630" y="134" width="20" height="43" fill="#3EBFD6" fill-opacity="0.3"/>
<rect id="Lote12-3" x="652" y="160" width="61" height="18" fill="#3EBFD6" fill-opacity="0.3"/>
<rect id="Lote11-3" x="652" y="140" width="61" height="18" fill="#3EBFD6" fill-opacity="0.3"/>
<rect id="Lote10-3" x="652" y="120" width="61" height="18" fill="#3EBFD6" fill-opacity="0.3"/>
<rect id="Lote9-3" x="652" y="101" width="61" height="17" fill="#3EBFD6" fill-opacity="0.3"/>
<path id="Lote8-3" d="M701.098 77H652V98H713V89.9231L705.561 83.4615L701.098 77Z" fill="#3EBFD6" fill-opacity="0.3"/>
<path id="Lote7-3" d="M712.5 44H652V75H701.5L705.5 67L712.5 60V44Z" fill="#3EBFD6" fill-opacity="0.3"/>
<path id="Lote6-3" d="M754.5 44H725.5V59L734.5 69.5V81.5L731 86L725.5 89.5V97.5H784.5V95L754.5 44Z" fill="#3EBFD6" fill-opacity="0.3"/>
<rect id="Lote5-3" x="725" y="100" width="61" height="17.8" fill="#3EBFD6" fill-opacity="0.3"/>
<rect id="Lote4-3" x="725" y="120" width="61" height="17.5" fill="#3EBFD6" fill-opacity="0.3"/>
<rect id="Lote3-3" x="725" y="140" width="61" height="17.5" fill="#3EBFD6" fill-opacity="0.3"/>
<path id="Lote2-3" d="M785.5 160H725.5V177.5H778.5V173.5H785.5V160Z" fill="#3EBFD6" fill-opacity="0.3"/>
<rect id="Lote1-3" x="790" y="138" width="27" height="35" fill="#3EBFD6" fill-opacity="0.3"/>
</g>
<g id="Fraccion 4">
<rect id="Lote39-4" x="1255" y="159" width="53" height="17.5" fill="#3EBFD6" fill-opacity="0.3"/>
<rect id="Lote38-4" x="1255" y="139" width="53" height="17.5" fill="#3EBFD6" fill-opacity="0.3"/>
<rect id="Lote37-4" x="1255" y="119" width="53" height="17.5" fill="#3EBFD6" fill-opacity="0.3"/>
<rect id="Lote36-4" x="1255" y="99" width="53" height="17.5" fill="#3EBFD6" fill-opacity="0.3"/>
<path id="Lote35-4" d="M1308 96V78H1286.09H1259.59V84.1714L1255 90.3429V96H1308Z" fill="#3EBFD6" fill-opacity="0.3"/>
<path id="Lote34-4" d="M1307.5 51H1251V52V65.5L1261 75.5H1305.5L1307.5 73V51Z" fill="#3EBFD6" fill-opacity="0.3"/>
<path id="Lote33-4" d="M1244.97 51H1182V75H1210.5H1237.35L1247 65.2979V53.0426L1244.97 51Z" fill="#3EBFD6" fill-opacity="0.3"/>
<path id="Lote32-4" d="M1237.41 77H1182V95H1243V88.8286L1240.97 87.2857L1237.41 82.1429V77Z" fill="#3EBFD6" fill-opacity="0.3"/>
<rect id="Lote31-4" x="1183" y="98" width="60" height="20" fill="#3EBFD6" fill-opacity="0.3"/>
<rect id="Lote30-4" x="1182" y="120" width="61" height="17" fill="#3EBFD6" fill-opacity="0.3"/>
<rect id="Lote29-4" x="1182" y="139" width="61" height="17" fill="#3EBFD6" fill-opacity="0.3"/>
<rect id="Lote28-4" x="1182" y="159" width="61" height="17" fill="#3EBFD6" fill-opacity="0.3"/>
<rect id="Lote27-4" x="1151" y="138" width="19" height="33" fill="#3EBFD6" fill-opacity="0.3"/>
<rect id="Lote26-4" x="1131" y="138" width="19" height="33" fill="#3EBFD6" fill-opacity="0.3"/>
<rect id="Lote25-4" x="1071" y="159" width="53" height="17.5" fill="#3EBFD6" fill-opacity="0.3"/>
<rect id="Lote24-12" x="1071" y="139" width="53" height="17.5" fill="#3EBFD6" fill-opacity="0.3"/>
<rect id="Lote23-4" x="1071" y="119" width="53" height="17.5" fill="#3EBFD6" fill-opacity="0.3"/>
<rect id="Lote22-4" x="1071" y="99" width="53" height="17.5" fill="#3EBFD6" fill-opacity="0.3"/>
<path id="Lote21-4" d="M1123 96V78.5H1101.5H1075.5V84.5L1071 90.5V96H1123Z" fill="#3EBFD6" fill-opacity="0.3"/>
<path id="Lote20-4" d="M1123.5 51H1067V52V65.5L1077 75.5H1121.5L1123.5 73V51Z" fill="#3EBFD6" fill-opacity="0.3"/>
<path id="Lote19-4" d="M1060.5 51H998.5V74.5H1053L1062.5 65V53L1060.5 51Z" fill="#3EBFD6" fill-opacity="0.3"/>
<path id="Lote18-4" d="M1053 77.5H998.5V95H1058.5V89L1056.5 87.5L1053 82.5V77.5Z" fill="#3EBFD6" fill-opacity="0.3"/>
<rect id="Lote17-4" x="998" y="98" width="61" height="21" fill="#3EBFD6" fill-opacity="0.3"/>
<rect id="Lote16-4" x="998" y="121" width="61" height="17" fill="#3EBFD6" fill-opacity="0.3"/>
<rect id="Lote15-4" x="998" y="140" width="61" height="17" fill="#3EBFD6" fill-opacity="0.3"/>
<rect id="Lote14-4" x="998" y="159" width="61" height="17" fill="#3EBFD6" fill-opacity="0.3"/>
<rect id="Lote13-4" x="975" y="138" width="18" height="39" fill="#3EBFD6" fill-opacity="0.3"/>
<rect id="Lote12-4" x="954" y="138" width="18" height="39" fill="#3EBFD6" fill-opacity="0.3"/>
<rect id="Lote11-4" x="897" y="159" width="52" height="17" fill="#3EBFD6" fill-opacity="0.3"/>
<rect id="Lote10-4" x="897" y="139.2" width="52" height="17.5" fill="#3EBFD6" fill-opacity="0.3"/>
<rect id="Lote9-4" x="897" y="120.5" width="52" height="17" fill="#3EBFD6" fill-opacity="0.3"/>
<path id="Lote8-4" d="M948.5 96H897L896.5 97.5V117L897.5 118H948.5L949 116V97.5L948.5 96Z" fill="#3EBFD6" fill-opacity="0.3"/>
<path id="Lote7-4" d="M948.505 76H902.145V80.5L901.5 84.5L897 89.7647V92.4118L898.486 94H948.01L949 92.4118V79.1765L948.505 76Z" fill="#3EBFD6" fill-opacity="0.3"/>
<path id="Lote6-4" d="M948 49.5H892.5V65.5L902.5 73.5L947 74L949.5 70.5V51L948 49.5Z" fill="#3EBFD6" fill-opacity="0.3"/>
<path id="Lote5-4" d="M887.5 49.5H824.5V74H878.5L879.5 73L888.5 65V51L887.5 49.5Z" fill="#3EBFD6" fill-opacity="0.3"/>
<path id="Lote4-4" d="M878 76H825V94H883.5L885 92.4118V89.2353L879.5 83.4118L878 78.1176V76Z" fill="#3EBFD6" fill-opacity="0.3"/>
<rect id="Lote3-4" x="824" y="96" width="61" height="21" fill="#3EBFD6" fill-opacity="0.3"/>
<path id="Lote2-4" d="M884 120H827L829.5 128.5L833.5 137H882.5L884 136V120Z" fill="#3EBFD6" fill-opacity="0.3"/>
<path id="Lote1-4" d="M883 139.5H835.5V144L845 161V175.5L846 176.5H883L885 174.5L884.5 142L883 139.5Z" fill="#3EBFD6" fill-opacity="0.3"/>
</g>
<g id="Fraccion 6">
<path id="Lote8-6" d="M318 381H259V425.5L260.5 426.5H311.5V422L319 413V383L318 381Z" fill="#3EBFD6" fill-opacity="0.3"/>
<rect id="Lote7-6" x="259" y="360" width="60" height="18" fill="#3EBFD6" fill-opacity="0.3"/>
<rect id="Lote6-6" x="259" y="336" width="60" height="20" fill="#3EBFD6" fill-opacity="0.3"/>
<rect id="Lote5-6" x="259" y="299" width="60" height="19" fill="#3EBFD6" fill-opacity="0.3"/>
<rect id="Lote4-6" x="259" y="277" width="60" height="19" fill="#3EBFD6" fill-opacity="0.3"/>
<rect id="Lote3-6" x="259" y="255" width="60" height="19" fill="#3EBFD6" fill-opacity="0.3"/>
<path id="Lote2-6" d="M307 233.5H259V252.5H318L319 251V238.5H307V233.5Z" fill="#3EBFD6" fill-opacity="0.3"/>
<path id="Lote1-6" d="M316 194.5L259 211.5V229L259.5 231L306 230.5V218.5H319V196L316 194.5Z" fill="#3EBFD6" fill-opacity="0.3"/>
</g>
<g id="Fraccion 7">
<path id="Lote74-7" d="M810.5 455.5H788.5V498H794.5V494.5H810.5V455.5Z" fill="#3EBFD6" fill-opacity="0.3"/>
<rect id="Lote73-7" x="727" y="480" width="54" height="17" fill="#3EBFD6" fill-opacity="0.3"/>
<rect id="Lote72-7" x="727" y="460" width="54" height="17" fill="#3EBFD6" fill-opacity="0.3"/>
<rect id="Lote71-7" x="727" y="440" width="54" height="17" fill="#3EBFD6" fill-opacity="0.3"/>
<rect id="Lote70-7" x="727" y="420" width="54" height="17" fill="#3EBFD6" fill-opacity="0.3"/>
<path id="Lote69-7" d="M780.5 399H734L732.5 405.5L728 411.5V416.5H780L780.5 399Z" fill="#3EBFD6" fill-opacity="0.3"/>
<path id="Lote68-7" d="M780 372H723V385L724 386.5L734.5 396H780V372Z" fill="#3EBFD6" fill-opacity="0.3"/>
<path id="Lote67-7" d="M720.5 372H655V396H710.5L720 386.5L720.5 372Z" fill="#3EBFD6" fill-opacity="0.3"/>
<path id="Lote66-7" d="M710 398H656V415H716.5V411.5L711.5 405V400.5L710 398Z" fill="#3EBFD6" fill-opacity="0.3"/>
<rect id="Lote65-7" x="655" y="419" width="61" height="20" fill="#3EBFD6" fill-opacity="0.3"/>
<rect id="Lote64-7" x="655" y="441" width="61" height="17" fill="#3EBFD6" fill-opacity="0.3"/>
<rect id="Lote63-7" x="655" y="460" width="61" height="17" fill="#3EBFD6" fill-opacity="0.3"/>
<rect id="Lote62-7" x="655" y="480" width="61" height="17" fill="#3EBFD6" fill-opacity="0.3"/>
<rect id="Lote61-7" x="628" y="460" width="22" height="38" fill="#3EBFD6" fill-opacity="0.3"/>
<rect id="Lote60-7" x="602" y="460" width="22" height="38" fill="#3EBFD6" fill-opacity="0.3"/>
<rect id="Lote59-7" x="542" y="480" width="54" height="17" fill="#3EBFD6" fill-opacity="0.3"/>
<rect id="Lote58-7" x="542" y="460" width="54" height="17" fill="#3EBFD6" fill-opacity="0.3"/>
<rect id="Lote57-7" x="542" y="440" width="54" height="17" fill="#3EBFD6" fill-opacity="0.3"/>
<rect id="Lote56-7" x="542" y="420" width="54" height="17" fill="#3EBFD6" fill-opacity="0.3"/>
<path id="Lote55-7" d="M595.5 399.5H549L547.5 406L543 412V417H595L595.5 399.5Z" fill="#3EBFD6" fill-opacity="0.3"/>
<path id="Lote54-7" d="M595 372H538V385L539 386.5L549.5 396H595V372Z" fill="#3EBFD6" fill-opacity="0.3"/>
<path id="Lote53-7" d="M535.5 372H470V396H525.5L535 386.5L535.5 372Z" fill="#3EBFD6" fill-opacity="0.3"/>
<path id="Lote52-7" d="M524.5 398.5H470.5V415.5H531V412L526 405.5V401L524.5 398.5Z" fill="#3EBFD6" fill-opacity="0.3"/>
<rect id="Lote51-7" x="470" y="418" width="61" height="21" fill="#3EBFD6" fill-opacity="0.3"/>
<rect id="Lote50-7" x="470" y="441" width="61" height="17" fill="#3EBFD6" fill-opacity="0.3"/>
<rect id="Lote49-7" x="470" y="460" width="61" height="17" fill="#3EBFD6" fill-opacity="0.3"/>
<rect id="Lote48-7" x="470" y="480" width="61" height="17" fill="#3EBFD6" fill-opacity="0.3"/>
<rect id="Lote47-7" x="433" y="458" width="17" height="37" fill="#3EBFD6" fill-opacity="0.3"/>
<rect id="Lote46-7" x="414" y="458" width="17" height="37" fill="#3EBFD6" fill-opacity="0.3"/>
<path id="Lote45-7" d="M411 458H394.5V497.5H398V495H405H411V458Z" fill="#3EBFD6" fill-opacity="0.3"/>
<rect id="Lote44-7" x="331" y="479" width="61" height="18" fill="#3EBFD6" fill-opacity="0.3"/>
<rect id="Lote43-7" x="331" y="457" width="61" height="18" fill="#3EBFD6" fill-opacity="0.3"/>
<rect id="Lote42-7" x="332" y="439" width="60" height="14" fill="#3EBFD6" fill-opacity="0.3"/>
<path id="Lote41-7" d="M376.5 418.5H336.5V421L339.5 424.5V435.5H385.5V432.5L376.5 418.5Z" fill="#3EBFD6" fill-opacity="0.3"/>
<path id="Lote40-7" d="M384 398H331.5V414.5L333.5 415H377L379 407.5L386 401L384 398Z" fill="#3EBFD6" fill-opacity="0.3"/>
<rect id="Lote39-7" x="331" y="380" width="61" height="15" fill="#3EBFD6" fill-opacity="0.3"/>
<rect id="Lote38-7" x="332" y="359" width="59" height="18" fill="#3EBFD6" fill-opacity="0.3"/>
<rect id="Lote37-7" x="332" y="337" width="59" height="19" fill="#3EBFD6" fill-opacity="0.3"/>
<rect id="Lote36-7" x="332" y="299" width="59" height="19" fill="#3EBFD6" fill-opacity="0.3"/>
<rect id="Lote35-7" x="332" y="277" width="59" height="19" fill="#3EBFD6" fill-opacity="0.3"/>
<rect id="Lote34-7" x="332" y="255" width="59" height="19" fill="#3EBFD6" fill-opacity="0.3"/>
<path id="Lote33-7" d="M391.5 233.5H344.5V238H331.5V250.5L333 252H389.5L391.5 250.5V233.5Z" fill="#3EBFD6" fill-opacity="0.3"/>
<path id="Lote32-7" d="M331.5 211.5V218.5H344.5V230.5H390L391.5 229V211.5H331.5Z" fill="#3EBFD6" fill-opacity="0.3"/>
<rect id="Lote31-7" x="333" y="190" width="58" height="18" fill="#3EBFD6" fill-opacity="0.3"/>
<path id="Lote30-7" d="M418 231V193.5H403V190H398V231H418Z" fill="#3EBFD6" fill-opacity="0.3"/>
<rect id="Lote29-7" x="421" y="193" width="21" height="38" fill="#3EBFD6" fill-opacity="0.3"/>
<path id="Lote28-7" d="M444.5 231V193.5H460.5V191H464V231H444.5Z" fill="#3EBFD6" fill-opacity="0.3"/>
<rect id="Lote27-7" x="470" y="188" width="61" height="17" fill="#3EBFD6" fill-opacity="0.3"/>
<path id="Lote26-7" d="M530.5 209H471.5H471V224.5L472.5 225.5H517.5V218.5H530.5V209Z" fill="#3EBFD6" fill-opacity="0.3"/>
<path id="Lote25-7" d="M517 228H471.5V244.5L473 245.5H528L531 243.5V238H517V228Z" fill="#3EBFD6" fill-opacity="0.3"/>
<rect id="Lote24-7" x="470" y="248.5" width="61" height="17" fill="#3EBFD6" fill-opacity="0.3"/>
<path id="Lote23-7" d="M529 269.5H471.5H470.5V286L472.5 287H525.5V282L530.5 276.5V271.5L529 269.5Z" fill="#3EBFD6" fill-opacity="0.3"/>
<path id="Lote22-7" d="M524.5 289.5H470.5V311.5L471.5 313.5H533.5L535 311.5V299L524.5 289.5Z" fill="#3EBFD6" fill-opacity="0.3"/>
<path id="Lote21-7" d="M600 289.5H548.5L538.5 298.5V312.5L539.5 313.5H598.5L600 312.5V289.5Z" fill="#3EBFD6" fill-opacity="0.3"/>
<path id="Lote20-7" d="M599.5 268.5H543.5V275.5L548.5 285.5L550.5 287H598.5L600.5 285.5V271L599.5 268.5Z" fill="#3EBFD6" fill-opacity="0.3"/>
<rect id="Lote19-7" x="543" y="248" width="58" height="17" fill="#3EBFD6" fill-opacity="0.3"/>
<path id="Lote18-7" d="M598.5 228.5H557.5V238.5H542.5V244L544 245.5H598.5L600 244V230.5L598.5 228.5Z" fill="#3EBFD6" fill-opacity="0.3"/>
<path id="Lote17-7" d="M600 208.5H543V219.5H555.5L557.5 220.5V225.5H600V208.5Z" fill="#3EBFD6" fill-opacity="0.3"/>
<rect id="Lote16-7" x="543" y="188" width="58" height="17" fill="#3EBFD6" fill-opacity="0.3"/>
<rect id="Lote15-7" x="607" y="188" width="19" height="39" fill="#3EBFD6" fill-opacity="0.3"/>
<rect id="Lote14-7" x="630" y="188" width="19" height="39" fill="#3EBFD6" fill-opacity="0.3"/>
<rect id="Lote13-7" x="653" y="188" width="60" height="17" fill="#3EBFD6" fill-opacity="0.3"/>
<path id="Lote12-7" d="M711 208H653V225L654 226H675.5H695.5V218.303H713V210.576L711 208Z" fill="#3EBFD6" fill-opacity="0.3"/>
<path id="Lote11-7" d="M695.5 228.5H653V245.5H711.5L713 244V237.5H695.5V228.5Z" fill="#3EBFD6" fill-opacity="0.3"/>
<rect id="Lote10-7" x="652" y="248" width="61" height="18" fill="#3EBFD6" fill-opacity="0.3"/>
<path id="Lote9-7" d="M711.5 269H653.5V287H707.5L709.5 278.5L713 276.5V271L711.5 269Z" fill="#3EBFD6" fill-opacity="0.3"/>
<path id="Lote8-7" d="M707.5 290H653V312.042L654 313H716L717 310.604V298.146L707.5 290Z" fill="#3EBFD6" fill-opacity="0.3"/>
<path id="Lote7-7" d="M778 289.5H731.5L721.5 298V311.5L722.5 313H778V289.5Z" fill="#3EBFD6" fill-opacity="0.3"/>
<path id="Lote6-7" d="M778.5 268.5H726V275.5L730 279V285L732 286.5H776.5L778.5 284V268.5Z" fill="#3EBFD6" fill-opacity="0.3"/>
<rect id="Lote5-7" x="726" y="248" width="52" height="17" fill="#3EBFD6" fill-opacity="0.3"/>
<path id="Lote4-7" d="M777.5 228.5H744V238.5H725V244L726.5 245.5H777.5V228.5Z" fill="#3EBFD6" fill-opacity="0.3"/>
<path id="Lote3-7" d="M778 209H725V220.333H743.676V226H778V209Z" fill="#3EBFD6" fill-opacity="0.3"/>
<rect id="Lote2-7" x="726" y="188" width="52" height="18" fill="#3EBFD6" fill-opacity="0.3"/>
<rect id="Lote1-7" x="786" y="193" width="32" height="34" fill="#3EBFD6" fill-opacity="0.3"/>
</g>
<g id="Fraccion 8">
<rect id="Lote37-8" x="1256" y="192" width="51" height="16" fill="#3EBFD6" fill-opacity="0.3"/>
<path id="Lote36-8" d="M1256 211V219.5H1276.5V227.5H1307.5V211H1256Z" fill="#3EBFD6" fill-opacity="0.3"/>
<path id="Lote35-8" d="M1307.5 230H1277V237.5H1256V246.5H1307.5V230Z" fill="#3EBFD6" fill-opacity="0.3"/>
<rect id="Lote34-8" x="1256" y="249" width="51" height="16" fill="#3EBFD6" fill-opacity="0.3"/>
<path id="Lote33-8" d="M1308 269H1256V275L1259.5 278L1261.5 286H1308V269Z" fill="#3EBFD6" fill-opacity="0.3"/>
<path id="Lote32-8" d="M1307.5 288H1261.5L1259 294L1252 297.5V312H1307.5V288Z" fill="#3EBFD6" fill-opacity="0.3"/>
<path id="Lote31-8" d="M1236.5 289H1183V312H1246.5V298.5L1236.5 289Z" fill="#3EBFD6" fill-opacity="0.3"/>
<path id="Lote30-8" opacity="0.6" d="M1242 269H1182.5V286H1238V280L1242 274.5V269Z" fill="#3EBFD6" fill-opacity="0.3"/>
<rect id="Lote29-8" x="1182" y="249" width="60" height="16" fill="#3EBFD6" fill-opacity="0.3"/>
<path id="Lote28-8" d="M1221 230H1181V246H1243V237.5H1232H1221V230Z" fill="#3EBFD6" fill-opacity="0.3"/>
<path id="Lote27-8" d="M1242.5 211H1182V227.5H1220.5V219H1242.5V211Z" fill="#3EBFD6" fill-opacity="0.3"/>
<rect id="Lote26-8" x="1182" y="192" width="60" height="16" fill="#3EBFD6" fill-opacity="0.3"/>
<rect id="Lote25-8" x="1152" y="193" width="19" height="36" fill="#3EBFD6" fill-opacity="0.3"/>
<rect id="Lote24-8" x="1131" y="193" width="19" height="36" fill="#3EBFD6" fill-opacity="0.3"/>
<rect id="Lote23-8" x="1072" y="192" width="51" height="16" fill="#3EBFD6" fill-opacity="0.3"/>
<path id="Lote22-8" d="M1071.5 211V219H1087.5V227H1123V211H1071.5Z" fill="#3EBFD6" fill-opacity="0.3"/>
<path id="Lote21-8" d="M1123.5 230H1087.5V237.5H1072V245H1123.5V230Z" fill="#3EBFD6" fill-opacity="0.3"/>
<rect id="Lote20-8" x="1072" y="249" width="51" height="16" fill="#3EBFD6" fill-opacity="0.3"/>
<path id="Lote19-8" d="M1123 269H1071V275L1074.5 278L1076.5 286H1123V269Z" fill="#3EBFD6" fill-opacity="0.3"/>
<path id="Lote18-8" d="M1123 289H1077L1074.5 295L1067.5 298.5V313H1123V289Z" fill="#3EBFD6" fill-opacity="0.3"/>
<path id="Lote17-8" d="M1052 290H998.5V313H1062V299.5L1052 290Z" fill="#3EBFD6" fill-opacity="0.3"/>
<path id="Lote16-8" d="M1057.5 268.5H998.5V286.5H1052L1054 284V280L1058.5 274.5L1057.5 268.5Z" fill="#3EBFD6" fill-opacity="0.3"/>
<rect id="Lote15-8" x="999" y="249" width="60" height="16" fill="#3EBFD6" fill-opacity="0.3"/>
<path id="Lote14-8" d="M1043 230.5H998V246.5H1059V238H1043V230.5Z" fill="#3EBFD6" fill-opacity="0.3"/>
<path id="Lote13-8" d="M1058.5 211.5H998V227.5H1042.5V219H1058.5V211.5Z" fill="#3EBFD6" fill-opacity="0.3"/>
<rect id="Lote12-8" x="998" y="192" width="60" height="16" fill="#3EBFD6" fill-opacity="0.3"/>
<rect id="Lote11-8" x="975" y="192" width="18" height="37" fill="#3EBFD6" fill-opacity="0.3"/>
<rect id="Lote10-8" x="954" y="192" width="18" height="37" fill="#3EBFD6" fill-opacity="0.3"/>
<rect id="Lote9-8" x="897" y="192" width="52" height="16" fill="#3EBFD6" fill-opacity="0.3"/>
<path id="Lote8-8" d="M896.5 210.5V218.5H914.5V227.5H949V210.5H896.5Z" fill="#3EBFD6" fill-opacity="0.3"/>
<path id="Lote7-8" d="M949 230H914.5V238H896.5V247H949V230Z" fill="#3EBFD6" fill-opacity="0.3"/>
<rect id="Lote6-8" x="897" y="249" width="52" height="16" fill="#3EBFD6" fill-opacity="0.3"/>
<path id="Lote5-8" d="M949 268.5H897.5V275L901.5 279V284.5L904 286.5H949V268.5Z" fill="#3EBFD6" fill-opacity="0.3"/>
<path id="Lote4-8" d="M949 289H902.593L892.504 299L892.504 313H949V289Z" fill="#3EBFD6" fill-opacity="0.3"/>
<path id="Lote3-8" d="M848.5 268L846.5 270L844.5 271.5V311.5L848.5 314H886L889 311.5V301L884.5 297.5L879.5 294.5L877 290.5V285L879.5 279.5L884.5 275.5V271.5L881 268H848.5Z" fill="#3EBFD6" fill-opacity="0.3"/>
<path id="Lote2-8" d="M867 231H846V264.5H884V238.5H867V231Z" fill="#3EBFD6" fill-opacity="0.3"/>
<path id="Lote1-8" d="M884 192H846V227H866.5V219H884V192Z" fill="#3EBFD6" fill-opacity="0.3"/>
</g>
<g id="Fraccion 11">
<path id="Lote41-11" d="M1367 480H1301V497H1367V480Z" fill="#3EBFD6" fill-opacity="0.3"/>
<path id="Lote40-11" d="M1367 460H1301V477H1367V460Z" fill="#3EBFD6" fill-opacity="0.3"/>
<path id="Lote39-11" d="M1367 440H1301V457H1367V440Z" fill="#3EBFD6" fill-opacity="0.3"/>
<path id="Lote38-11" d="M1367 420H1302V437H1367V420Z" fill="#3EBFD6" fill-opacity="0.3"/>
<path id="Lote37-11" d="M1306.87 399H1365V416H1301V411.364L1306.87 405.182V399Z" fill="#3EBFD6" fill-opacity="0.3"/>
<path id="Lote36-11" d="M1296 372H1365V395H1306.87L1303.61 389.617L1296 386.191V372Z" fill="#3EBFD6" fill-opacity="0.3"/>
<path id="Lote35-11" d="M1291.5 373H1228V396.5H1281.5L1284.5 391L1291.5 387.5V373Z" fill="#3EBFD6" fill-opacity="0.3"/>
<path id="Lote34-11" d="M1282.5 399H1228V415.5H1288V411L1282.5 405V399Z" fill="#3EBFD6" fill-opacity="0.3"/>
<path id="Lote33-11" d="M1288 420H1229V437H1288V420Z" fill="#3EBFD6" fill-opacity="0.3"/>
<path id="Lote32-11" d="M1288 440H1229V457H1288V440Z" fill="#3EBFD6" fill-opacity="0.3"/>
<path id="Lote31-11" d="M1288 460H1229V477H1288V460Z" fill="#3EBFD6" fill-opacity="0.3"/>
<path id="Lote30-11" d="M1230 480H1288V497.5H1241V494.5H1230V480Z" fill="#3EBFD6" fill-opacity="0.3"/>
<rect id="Lote29-11" x="1207" y="455" width="16" height="40" fill="#3EBFD6" fill-opacity="0.3"/>
<rect id="Lote28-11" x="1184" y="455" width="16" height="40" fill="#3EBFD6" fill-opacity="0.3"/>
<path id="Lote27-11" d="M1175 480H1117V497.5H1170V494.5H1175V480Z" fill="#3EBFD6" fill-opacity="0.3"/>
<path id="Lote26-11" d="M1174 460H1116V477H1174V460Z" fill="#3EBFD6" fill-opacity="0.3"/>
<path id="Lote25-11" d="M1174 440H1116V457H1174V440Z" fill="#3EBFD6" fill-opacity="0.3"/>
<path id="Lote24-11" d="M1175 420H1117V437H1175V420Z" fill="#3EBFD6" fill-opacity="0.3"/>
<path id="Lote23-11" d="M1122.32 399H1175V416H1117V411.364L1122.32 405.182V399Z" fill="#3EBFD6" fill-opacity="0.3"/>
<path id="Lote22-11" d="M1112 372H1175V395H1121.92L1118.94 389.617L1112 386.191V372Z" fill="#3EBFD6" fill-opacity="0.3"/>
<path id="Lote21-11" d="M1107.5 373H1044V396.5H1097.5L1100.5 391L1107.5 387.5V373Z" fill="#3EBFD6" fill-opacity="0.3"/>
<path id="Lote20-11" d="M1098.5 399H1044V415.5H1104V411L1098.5 405V399Z" fill="#3EBFD6" fill-opacity="0.3"/>
<path id="Lote19-11" d="M1103.5 418H1044V439H1103.5V418Z" fill="#3EBFD6" fill-opacity="0.3"/>
<rect id="Lote18-11" x="1044" y="442" width="60" height="16.5" fill="#3EBFD6" fill-opacity="0.3"/>
<rect id="Lote17-11" x="1044" y="460" width="60" height="16.5" fill="#3EBFD6" fill-opacity="0.3"/>
<rect id="Lote16-11" x="1044" y="480" width="60" height="16.5" fill="#3EBFD6" fill-opacity="0.3"/>
<rect id="Lote15-11" x="1021" y="456" width="18" height="41" fill="#3EBFD6" fill-opacity="0.3"/>
<rect id="Lote14-11" x="1002" y="456" width="18" height="41" fill="#3EBFD6" fill-opacity="0.3"/>
<path id="Lote13-11" d="M998 480H944V497H998V480Z" fill="#3EBFD6" fill-opacity="0.3"/>
<path id="Lote12-11" d="M998 460H944V477H998V460Z" fill="#3EBFD6" fill-opacity="0.3"/>
<path id="Lote11-11" d="M998 440H944V457H998V440Z" fill="#3EBFD6" fill-opacity="0.3"/>
<path id="Lote10-11" d="M997 420H943V437H997V420Z" fill="#3EBFD6" fill-opacity="0.3"/>
<path id="Lote9-11" d="M948.95 399H998V416H944V411.364L948.95 405.182V399Z" fill="#3EBFD6" fill-opacity="0.3"/>
<path id="Lote8-11" d="M940 373H997V396H948.976L946.283 390.617L940 387.191V373Z" fill="#3EBFD6" fill-opacity="0.3"/>
<path id="Lote7-11" d="M936 372H872.5V395.5H926L929 390L936 386.5V372Z" fill="#3EBFD6" fill-opacity="0.3"/>
<path id="Lote6-11" d="M926.5 399H872V415.5H932V411L926.5 405V399Z" fill="#3EBFD6" fill-opacity="0.3"/>
<path id="Lote5-11" d="M931.5 418.5H872V439.5H931.5V418.5Z" fill="#3EBFD6" fill-opacity="0.3"/>
<rect id="Lote4-11" x="872" y="441.5" width="60" height="16.5" fill="#3EBFD6" fill-opacity="0.3"/>
<rect id="Lote3-11" x="872" y="460" width="60" height="16.5" fill="#3EBFD6" fill-opacity="0.3"/>
<rect id="Lote2-11" x="872" y="480" width="60" height="16.5" fill="#3EBFD6" fill-opacity="0.3"/>
<path id="Lote1-11" d="M865.5 456H844.5V494H860.5V497.5H865.5V456Z" fill="#3EBFD6" fill-opacity="0.3"/>
</g>
<g id="Fraccion 14">
<rect id="Lote32-14" x="788" y="514" width="22" height="40" fill="#3EBFD6" fill-opacity="0.3"/>
<rect id="Lote31-14" x="727" y="513" width="54" height="16" fill="#3EBFD6" fill-opacity="0.3"/>
<path id="Lote30-14" d="M727 532H780V547.97L778.218 549H739.5V542H727V532Z" fill="#3EBFD6" fill-opacity="0.3"/>
<path id="Lote29-14" d="M727 568H780V552.03L778.218 551H739V560.5H727V568Z" fill="#3EBFD6" fill-opacity="0.3"/>
<rect id="Lote28-14" x="726" y="570" width="54" height="17" fill="#3EBFD6" fill-opacity="0.3"/>
<path id="Lote27-14" d="M780 590H727V593.5L732.5 599V605L734 607L780 607.5V590Z" fill="#3EBFD6" fill-opacity="0.3"/>
<path id="Lote26-14" d="M731.395 610H780V634H723V618.5L731.395 610Z" fill="#3EBFD6" fill-opacity="0.3"/>
<path id="Lote25-14" d="M710 610H655V634H719.5V618.5L710 610Z" fill="#3EBFD6" fill-opacity="0.3"/>
<path id="Lote24-14" d="M714.5 589H656V606.5H710.5V600L711 597.5L716 593V590.5L714.5 589Z" fill="#3EBFD6" fill-opacity="0.3"/>
<rect id="Lote23-14" x="656" y="570" width="60" height="17" fill="#3EBFD6" fill-opacity="0.3"/>
<path id="Lote22-14" d="M716.5 567.5H656V552L658 551H701.5V560.5H716.5V567.5Z" fill="#3EBFD6" fill-opacity="0.3"/>
<path id="Lote21-14" d="M715 532H655V547.97L657.017 549H701.5L701.5 541.273H715V532Z" fill="#3EBFD6" fill-opacity="0.3"/>
<rect id="Lote20-14" x="655" y="513" width="60" height="17" fill="#3EBFD6" fill-opacity="0.3"/>
<rect id="Lote19-14" x="629" y="512" width="22" height="37" fill="#3EBFD6" fill-opacity="0.3"/>
<rect id="Lote18-14" x="602" y="512" width="22" height="37" fill="#3EBFD6" fill-opacity="0.3"/>
<rect id="Lote17-14" x="542" y="513" width="54" height="16" fill="#3EBFD6" fill-opacity="0.3"/>
<path id="Lote16-14" d="M543 532H596V547.97L594.218 549H558V541.273H543V532Z" fill="#3EBFD6" fill-opacity="0.3"/>
<path id="Lote15-14" d="M543 568H596V552.03L594.218 551H557.5V560.5H543V568Z" fill="#3EBFD6" fill-opacity="0.3"/>
<rect id="Lote14-14" x="542" y="570" width="54" height="17" fill="#3EBFD6" fill-opacity="0.3"/>
<path id="Lote13-14" d="M596 590H543V593.5L548.5 599V605L550 607L596 607.5V590Z" fill="#3EBFD6" fill-opacity="0.3"/>
<path id="Lote12-14" d="M547.395 610H596V634H539V618.5L547.395 610Z" fill="#3EBFD6" fill-opacity="0.3"/>
<path id="Lote11-14" d="M525.5 610H470.5V634H535V618.5L525.5 610Z" fill="#3EBFD6" fill-opacity="0.3"/>
<path id="Lote10-14" d="M529.5 590H471V607.5H525.5V601L526 598.5L531 594V591.5L529.5 590Z" fill="#3EBFD6" fill-opacity="0.3"/>
<rect id="Lote9-14" x="471" y="570.4" width="60" height="16" fill="#3EBFD6" fill-opacity="0.3"/>
<path id="Lote8-14" d="M531.5 567.5H471V552L473 551H516.5V560.5H531.5V567.5Z" fill="#3EBFD6" fill-opacity="0.3"/>
<path id="Lote7-14" d="M530.5 532H471V547.5L473 548.5H515.5V541H530.5V532Z" fill="#3EBFD6" fill-opacity="0.3"/>
<rect id="Lote6-14" x="471" y="513" width="60" height="17" fill="#3EBFD6" fill-opacity="0.3"/>
<rect id="Lote5-14" x="433" y="513" width="22" height="47" fill="#3EBFD6" fill-opacity="0.3"/>
<rect id="Lote4-14" x="408" y="513" width="22" height="47" fill="#3EBFD6" fill-opacity="0.3"/>
<rect id="Lote3-14" x="383.5" y="513" width="22" height="47" fill="#3EBFD6" fill-opacity="0.3"/>
<rect id="Lote2-14" x="359" y="513" width="22" height="47" fill="#3EBFD6" fill-opacity="0.3"/>
<rect id="Lote1-14" x="335" y="513" width="21" height="47" fill="#3EBFD6" fill-opacity="0.3"/>
</g>
<g id="Fraccion 15">
<rect id="Lote41-15" x="1300" y="512" width="66" height="17" fill="#3EBFD6" fill-opacity="0.3"/>
<path id="Lote40-15" d="M1301 532H1366V549L1319.57 548.514V541.229H1301V532Z" fill="#3EBFD6" fill-opacity="0.3"/>
<path id="Lote39-15" d="M1300 568H1366V551H1318.55V561.686H1300V568Z" fill="#3EBFD6" fill-opacity="0.3"/>
<rect id="Lote38-15" x="1300" y="570" width="66" height="17" fill="#3EBFD6" fill-opacity="0.3"/>
<path id="Lote37-15" d="M1301 590H1366V608H1307.55L1305.92 605.5V599L1301 594.5V590Z" fill="#3EBFD6" fill-opacity="0.3"/>
<path id="Lote36-15" d="M1307.31 610H1367V634H1297V618.5L1307.31 610Z" fill="#3EBFD6" fill-opacity="0.3"/>
<path id="Lote35-15" d="M1283 610H1228V634H1292.5V618.5L1283 610Z" fill="#3EBFD6" fill-opacity="0.3"/>
<path id="Lote34-15" d="M1287.5 590H1228V608H1281.5L1283 605.5V599L1287.5 594.5V590Z" fill="#3EBFD6" fill-opacity="0.3"/>
<rect id="Lote33-15" x="1228" y="570" width="60" height="17" fill="#3EBFD6" fill-opacity="0.3"/>
<path id="Lote32-15" d="M1288.5 567.5H1228V550H1271.5V561H1288.5V567.5Z" fill="#3EBFD6" fill-opacity="0.3"/>
<path id="Lote31-15" d="M1288.5 532H1229V549.5L1271.5 549V541.5H1288.5V532Z" fill="#3EBFD6" fill-opacity="0.3"/>
<rect id="Lote30-15" x="1228" y="513" width="60" height="17" fill="#3EBFD6" fill-opacity="0.3"/>
<rect id="Lote29-15" x="1207" y="513" width="17" height="33" fill="#3EBFD6" fill-opacity="0.3"/>
<rect id="Lote28-15" x="1183" y="513" width="17" height="33" fill="#3EBFD6" fill-opacity="0.3"/>
<rect id="Lote27-15" x="1115" y="512" width="60" height="17" fill="#3EBFD6" fill-opacity="0.3"/>
<path id="Lote26-15" d="M1115 532H1174.5V549.5H1140V542H1115V532Z" fill="#3EBFD6" fill-opacity="0.3"/>
<path id="Lote25-15" d="M1115 568H1175V550H1140V560H1115V568Z" fill="#3EBFD6" fill-opacity="0.3"/>
<rect id="Lote24-15" x="1115" y="570" width="60" height="17" fill="#3EBFD6" fill-opacity="0.3"/>
<path id="Lote23-15" d="M1116 590H1175.5V608H1122L1120.5 605.5V599L1116 594.5V590Z" fill="#3EBFD6" fill-opacity="0.3"/>
<path id="Lote22-15" d="M1120.57 610H1176V634H1111V618.5L1120.57 610Z" fill="#3EBFD6" fill-opacity="0.3"/>
<path id="Lote21-15" d="M1098 610H1043V634H1107.5V618.5L1098 610Z" fill="#3EBFD6" fill-opacity="0.3"/>
<path id="Lote20-15" d="M1103 589.5H1043.5V607.5H1097L1098.5 605V598.5L1103 594V589.5Z" fill="#3EBFD6" fill-opacity="0.3"/>
<rect id="Lote19-15" x="1043" y="570" width="60" height="17" fill="#3EBFD6" fill-opacity="0.3"/>
<path id="Lote18-15" d="M1103.5 568.5H1043.5V550.5H1078.5V560.5H1103.5V568.5Z" fill="#3EBFD6" fill-opacity="0.3"/>
<path id="Lote17-15" d="M1103 531.5H1043.5V549H1078V541.5H1103V531.5Z" fill="#3EBFD6" fill-opacity="0.3"/>
<rect id="Lote16-15" x="1044" y="513" width="60" height="17" fill="#3EBFD6" fill-opacity="0.3"/>
<rect id="Lote15-15" x="1021" y="512" width="17" height="34" fill="#3EBFD6" fill-opacity="0.3"/>
<rect id="Lote14-15" x="1002" y="512" width="17" height="34" fill="#3EBFD6" fill-opacity="0.3"/>
<rect id="Lote13-15" x="944" y="513" width="53" height="17" fill="#3EBFD6" fill-opacity="0.3"/>
<path id="Lote12-15" d="M996.5 548.5H967V541.5H944V532H996.5V548.5Z" fill="#3EBFD6" fill-opacity="0.3"/>
<path id="Lote11-15" d="M996.5 551H967V560.5H944V567.5H996.5V551Z" fill="#3EBFD6" fill-opacity="0.3"/>
<rect id="Lote10-15" x="943" y="570" width="54" height="17" fill="#3EBFD6" fill-opacity="0.3"/>
<path id="Lote9-15" d="M996.5 589.5H944.5V595.5L949.5 600V607.5H996.5V589.5Z" fill="#3EBFD6" fill-opacity="0.3"/>
<path id="Lote8-15" d="M948.395 610H997V634H940V618.5L948.395 610Z" fill="#3EBFD6" fill-opacity="0.3"/>
<path id="Lote7-15" d="M927 610H872V634H936.5V618.5L927 610Z" fill="#3EBFD6" fill-opacity="0.3"/>
<path id="Lote6-15" d="M931.5 590H872V606.5H926.5V599L931.5 594V590Z" fill="#3EBFD6" fill-opacity="0.3"/>
<rect id="Lote5-15" x="872" y="570" width="60" height="16.5" fill="#3EBFD6" fill-opacity="0.3"/>
<path id="Lote4-15" d="M909.5 551H871V567.5H932V560.5H909.5V551Z" fill="#3EBFD6" fill-opacity="0.3"/>
<path id="Lote3-15" d="M932 532H871.5V549H909.5V541H932V532Z" fill="#3EBFD6" fill-opacity="0.3"/>
<rect id="Lote2-15" x="872" y="512" width="60" height="16.5" fill="#3EBFD6" fill-opacity="0.3"/>
<rect id="Lote1-15" x="845" y="514" width="21" height="39" fill="#3EBFD6" fill-opacity="0.3"/>
</g>
<g id="Espacios Comunes">
<path id="Canchas de Tenis" d="M205.5 124L145 162.5L194 191L256 153L205.5 124Z" fill="#3EBFD6" fill-opacity="0.3"/>
<path id="Canchas de Futbol" d="M147.5 335V285L178.5 266L242.5 303.5V351.5L209.5 371.5L147.5 335Z" fill="#3EBFD6" fill-opacity="0.3"/>
<path id="Club House" d="M182 470.5V522L213 527.5H258L281.5 522L309 498V474L281.5 444H230.5L182 470.5Z" fill="#3EBFD6" fill-opacity="0.3"/>
<path id="Salon de Eventos" d="M242.5 553.5L231.5 564.5L280.5 593.5L320.5 568.5L315.5 553.5L302 528.5L276.5 533.5L242.5 553.5Z" fill="#3EBFD6" fill-opacity="0.3"/>
</g>
</g>
</g>
</svg>
